<svg id="visual" viewBox="0 0 960 540" width="960" height="540" xmlns="http://www.w3.org/2000/svg" xmlns:xlink="http://www.w3.org/1999/xlink" version="1.1">
<rect x="0" y="0" width="960" height="540" fill="#001220">

</rect>
<defs>
<linearGradient id="grad1_0" x1="43.8%" y1="0%" x2="100%" y2="100%">
<stop offset="14.444444444444446%" stop-color="#001220" stop-opacity="1">
</stop>
<stop offset="85.55555555555554%" stop-color="#001220" stop-opacity="1">
</stop>
</linearGradient>
</defs>
<defs>
<linearGradient id="grad2_0" x1="0%" y1="0%" x2="56.3%" y2="100%">
<stop offset="14.444444444444446%" stop-color="#001220" stop-opacity="1">
</stop><stop offset="85.55555555555554%" stop-color="#001220" stop-opacity="1">
</stop>
</linearGradient>
</defs>
<g transform="translate(960, 0)">
<path d="M0 351C-80 352.6 -160.1 354.2 -175.5 304C-190.9 253.8 -141.7 151.8 -160.2 92.5C-178.7 33.2 -264.8 16.6 -351 0L0 0Z" fill="#FBAE3C"></path></g><g transform="translate(0, 540)"><path d="M0 -351C78.7 -351.8 157.3 -352.6 175.5 -304C193.7 -255.4 151.4 -157.4 170.6 -98.5C189.8 -39.6 270.4 -19.8 351 0L0 0Z" fill="#FBAE3C"></path></g></svg>